HIERARCHY
ROOT RootJoint
{
    OFFSET   0.000000   0.000000   0.000000
    CHANNELS 6 Xposition Yposition Zposition Xrotation Yrotation Zrotation
    JOINT pelvis_lowerback
    {
        OFFSET   0.000000   0.093605   0.000000
        CHANNELS 3 Xrotation Yrotation Zrotation
        JOINT lowerback_torso
        {
            OFFSET   0.000000   0.100000   0.000000
            CHANNELS 3 Xrotation Yrotation Zrotation
            JOINT torso_head
            {
                OFFSET   0.000000   0.282350   0.000000
                CHANNELS 3 Xrotation Yrotation Zrotation
                End Site
                {
                    OFFSET   0.000000   0.192650   0.000000
                }
            }
            JOINT rTorso_Clavicle
            {
                OFFSET  -0.001000   0.157500   0.000000
                CHANNELS 3 Xrotation Yrotation Zrotation
                JOINT rShoulder
                {
                    OFFSET  -0.117647   0.000000   0.000000
                    CHANNELS 3 Xrotation Yrotation Zrotation
                    JOINT rElbow
                    {
                        OFFSET  -0.245000   0.000000   0.000000
                        CHANNELS 3 Xrotation Yrotation Zrotation
                        JOINT rWrist
                        {
                            OFFSET  -0.240000   0.000000   0.000000
                            CHANNELS 3 Xrotation Yrotation Zrotation
                            End Site
                            {
                                OFFSET  -0.116353  -0.002500   0.000000
                            }
                        }
                    }
                }
            }
            JOINT lTorso_Clavicle
            {
                OFFSET   0.001000   0.157500   0.000000
                CHANNELS 3 Xrotation Yrotation Zrotation
                JOINT lShoulder
                {
                    OFFSET   0.117647   0.000000   0.000000
                    CHANNELS 3 Xrotation Yrotation Zrotation
                    JOINT lElbow
                    {
                        OFFSET   0.245000   0.000000   0.000000
                        CHANNELS 3 Xrotation Yrotation Zrotation
                        JOINT lWrist
                        {
                            OFFSET   0.240000   0.000000   0.000000
                            CHANNELS 3 Xrotation Yrotation Zrotation
                            End Site
                            {
                                OFFSET   0.116353  -0.002500   0.000000
                            }
                        }
                    }
                }
            }
        }
    }
    JOINT rHip
    {
        OFFSET  -0.100000  -0.051395   0.000000
        CHANNELS 3 Xrotation Yrotation Zrotation
        JOINT rKnee
        {
            OFFSET   0.000000  -0.410000   0.000000
            CHANNELS 3 Xrotation Yrotation Zrotation
            JOINT rAnkle
            {
                OFFSET   0.000000  -0.390000   0.000000
                CHANNELS 3 Xrotation Yrotation Zrotation
                JOINT rToeJoint
                {
                    OFFSET   0.000000  -0.050000   0.130000
                    CHANNELS 3 Xrotation Yrotation Zrotation
                    End Site
                    {
                        OFFSET  -0.010000   0.002000   0.060000
                    }
                }
            }
        }
    }
    JOINT lHip
    {
        OFFSET   0.100000  -0.051395   0.000000
        CHANNELS 3 Xrotation Yrotation Zrotation
        JOINT lKnee
        {
            OFFSET   0.000000  -0.410000   0.000000
            CHANNELS 3 Xrotation Yrotation Zrotation
            JOINT lAnkle
            {
                OFFSET   0.000000  -0.390000   0.000000
                CHANNELS 3 Xrotation Yrotation Zrotation
                JOINT lToeJoint
                {
                    OFFSET   0.000000  -0.050000   0.130000
                    CHANNELS 3 Xrotation Yrotation Zrotation
                    End Site
                    {
                        OFFSET   0.010000   0.002000   0.060000
                    }
                }
            }
        }
    }
}
MOTION
Frames: 14
Frame Time:   0.008333
 -2.367356   0.910700   4.046536 -13.181125  -4.989178   1.433977   7.443578   0.697655  -2.957833  -0.323751  -3.884838  -1.118805   2.658247   0.395417  -2.831260  -1.042425  -4.491231  -6.657207   4.361186  -4.864103  17.491522   0.011247  14.777000  -0.014135   1.963899   0.592236  -0.397588  -6.058791  -1.105132   8.003689 -15.740864  -1.350753  -4.271046  -0.001756 -15.493884  -0.005335   0.505810  -3.480004   5.391465   9.039910  -8.810788  -6.323506  19.175857   0.005422  -0.010007 -17.187456 -10.780577  -2.181792   2.212438  -0.001096   0.001831  -4.141712   7.426023  10.097242  34.930206   0.007289   0.025897  -1.837228   8.712131  -3.839364  -0.982836   0.003029   0.010115
 -2.369791   0.910839   4.046117 -13.255057  -4.612093   1.232003   7.638008   0.828259  -3.099753  -0.551300  -3.926666  -1.120084   2.662145   0.349501  -2.793205  -1.229458  -4.625050  -6.823889   3.315620  -5.228408  17.295593   0.008974  14.779100  -0.011285   1.866858   0.397546  -0.862001  -6.275423  -1.077926   8.162848 -16.710517  -1.303189  -4.301857  -0.003142 -16.008598  -0.010421   0.407016  -3.254957   5.954734   9.465173  -8.984889  -5.791597  18.670068   0.005075  -0.009120 -16.981467 -11.018682  -2.447348   2.465419  -0.000763   0.001400  -5.238841   7.569479  10.632006  37.083265   0.011482   0.034002  -1.778974   8.762078  -4.121588  -0.701612   0.003198   0.010218
 -2.372103   0.910901   4.045706 -13.367131  -4.265882   1.037659   7.854432   0.973557  -3.250958  -0.737387  -3.953296  -1.127367   2.671780   0.307615  -2.753383  -1.416402  -4.709436  -6.984820   2.321207  -5.534791  17.094348   0.007022  14.797780  -0.008803   1.757228   0.288766  -1.394431  -6.475882  -1.085461   8.296431 -17.618776  -1.285707  -4.344739  -0.003990 -16.508955  -0.013885   0.312521  -3.155767   6.517079   9.895424  -9.145921  -5.292449  18.217518   0.004691  -0.008185 -16.782762 -11.243016  -2.694338   2.703480  -0.000509   0.001037  -6.293228   7.711357  11.141737  39.240207   0.015599   0.039716  -1.716573   8.811560  -4.385558  -0.439719   0.003306   0.010088
 -2.374305   0.910915   4.045349 -13.488282  -3.943425   0.852918   8.065627   1.120564  -3.406685  -0.901144  -3.966442  -1.145908   2.682199   0.268896  -2.716152  -1.595079  -4.757029  -7.138231   1.384007  -5.794987  16.897339   0.005403  14.824635  -0.006738   1.651550   0.241503  -1.927891  -6.659391  -1.112505   8.410835 -18.466167  -1.282459  -4.395166  -0.004434 -16.982555  -0.016020   0.226286  -3.112101   7.041606  10.313975  -9.294525  -4.820607  17.801282   0.004304  -0.007296 -16.595502 -11.453149  -2.924521   2.922674  -0.000321   0.000749  -7.287497   7.837013  11.618533  41.276290   0.018940   0.042555  -1.656917   8.857963  -4.632144  -0.197802   0.003365   0.009721
 -2.376409   0.910889   4.045059 -13.608815  -3.637614   0.676213   8.267173   1.265100  -3.564807  -1.051172  -3.970075  -1.174157   2.691321   0.232876  -2.681873  -1.764408  -4.780080  -7.283143   0.503185  -6.019599  16.707735   0.004083  14.855971  -0.005055   1.550719   0.234535  -2.445846  -6.828096  -1.149971   8.509749 -19.256576  -1.286147  -4.449848  -0.004596 -17.427862  -0.017147   0.145885  -3.093795   7.528811  10.717140  -9.432006  -4.370159  17.414077   0.003929  -0.006492 -16.420103 -11.650096  -3.138843   3.123838  -0.000187   0.000531  -8.225664   7.946251  12.064591  43.177393   0.021428   0.043246  -1.601307   8.901231  -4.862397   0.022679   0.003372   0.009179
 -2.378416   0.910826   4.044845 -13.725384  -3.344918   0.506431   8.458298   1.405711  -3.724283  -1.190326  -3.966622  -1.210397   2.698980   0.199328  -2.650420  -1.924032  -4.787095  -7.419283  -0.323084  -6.216356  16.526929   0.003023  14.889369  -0.003708   1.454794   0.253314  -2.944189  -6.983762  -1.192078   8.595916 -19.993795  -1.292604  -4.506316  -0.004567 -17.845073  -0.017526   0.069907  -3.087317   7.984113  11.104415  -9.559287  -3.938175  17.052642   0.003570  -0.005776 -16.256080 -11.834696  -3.338272   3.308262  -0.000094   0.000371  -9.110676   8.040927  12.481634  44.948279   0.023122   0.042449  -1.549725   8.941554  -5.077379   0.223077   0.003331   0.008530
 -2.380328   0.910728   4.044710 -13.836474  -3.063407   0.342655   8.638914   1.541681  -3.884232  -1.319929  -3.957708  -1.253170   2.705459   0.168073  -2.621605  -2.073968  -4.783845  -7.546797  -1.097138  -6.390853  16.355452   0.002182  14.923257  -0.002646   1.363665   0.288088  -3.422050  -7.127818  -1.235074   8.671415 -20.681386  -1.299307  -4.562831  -0.004411 -18.235049  -0.017362  -0.002522  -3.085554   8.412309  11.475880  -9.677155  -3.522929  16.715120   0.003231  -0.005143 -16.102686 -12.007713  -3.523766   3.477281  -0.000029   0.000257  -9.944612   8.123010  12.871090  46.597112   0.024120   0.040666  -1.501916   8.979126  -5.278100   0.405188   0.003250   0.007830
 -2.382203   0.910195   4.044107 -13.949301  -2.696427   0.060121   8.932958   1.666888  -3.941482  -1.476804  -3.973228  -1.222511   2.699779   0.141226  -2.558487  -2.261083  -4.801552  -7.612229  -2.337814  -6.650679  16.069422  -0.001097  15.303603   0.002925   1.272128   0.069830  -4.008147  -7.284027  -1.285976   8.668366 -21.566088  -1.303028  -4.767240  -0.004408 -19.107339  -0.022418  -0.093781  -2.826058   9.062112  11.735212  -9.859186  -2.983332  16.606943   0.002718  -0.004270 -16.062651 -12.246718  -3.775489   3.729665   0.000148  -0.000043 -11.066540   8.145155  13.444438  48.790311   0.028063   0.043349  -1.571862   8.998839  -5.490674   0.521172   0.003015   0.007015
 -2.383997   0.909519   4.043464 -14.108422  -2.323486  -0.231113   9.254550   1.789395  -3.993866  -1.583672  -3.987144  -1.182340   2.702279   0.117567  -2.490191  -2.447724  -4.765885  -7.653026  -3.515039  -6.844652  15.804519  -0.003488  15.683932   0.006989   1.175814  -0.010980  -4.639590  -7.420558  -1.386204   8.618194 -22.392260  -1.341123  -5.001634  -0.003691 -19.950019  -0.025441  -0.165822  -2.745650   9.677373  11.997057 -10.039125  -2.448776  16.583753   0.002201  -0.003449 -16.003798 -12.473874  -4.001392   3.956986   0.000260  -0.000225 -12.136362   8.152270  14.015043  50.929093   0.031607   0.044863  -1.632867   9.018950  -5.689058   0.627213   0.002809   0.006289
 -2.385712   0.908773   4.042870 -14.284836  -1.946537  -0.516463   9.573896   1.903180  -4.047894  -1.662443  -3.999747  -1.147110   2.706518   0.095828  -2.424695  -2.625457  -4.694349  -7.673112  -4.621873  -6.992494  15.566611  -0.005107  16.050960   0.009754   1.087604  -0.009959  -5.238349  -7.538977  -1.515406   8.540328 -23.161079  -1.393186  -5.251080  -0.002693 -20.746027  -0.026928  -0.224073  -2.741626  10.215785  12.257532 -10.210100  -1.927313  16.603903   0.001740  -0.002729 -15.936891 -12.687212  -4.208099   4.167618   0.000332  -0.000308 -13.143443   8.146811  14.557682  52.935383   0.034295   0.044871  -1.689229   9.038386  -5.874134   0.724890   0.002632   0.005627
 -2.387348   0.907988   4.042366 -14.465093  -1.568157  -0.792719   9.882290   2.008658  -4.105459  -1.725653  -4.011123  -1.119517   2.710140   0.075656  -2.363466  -2.793152  -4.602576  -7.677542  -5.659487  -7.108498  15.353345  -0.006132  16.400865   0.011506   1.006614   0.038023  -5.793317  -7.643157  -1.658519   8.445477 -23.876674  -1.449515  -5.505610  -0.001677 -21.493781  -0.027330  -0.274424  -2.771280  10.688166  12.514743 -10.370899  -1.420061  16.647948   0.001349  -0.002112 -15.867707 -12.887036  -4.398705   4.361883   0.000374  -0.000320 -14.091630   8.132082  15.066975  54.804133   0.036099   0.043693  -1.742155   9.056892  -6.046827   0.813092   0.002468   0.005012
 -2.388904   0.907181   4.041972 -14.642728  -1.191783  -1.059246  10.176379   2.107304  -4.167244  -1.779081  -4.020698  -1.099779   2.712714   0.056908  -2.306629  -2.950537  -4.500878  -7.670935  -6.630487  -7.202298  15.161290  -0.006715  16.731891   0.012482   0.931709   0.112253  -6.308028  -7.736064  -1.805593   8.341045 -24.542985  -1.504595  -5.758160  -0.000775 -22.194038  -0.026973  -0.319927  -2.815419  11.109983  12.767668 -10.521603  -0.927705  16.706158   0.001028  -0.001593 -15.798939 -13.074030  -4.575040   4.540526   0.000395  -0.000290 -14.983662   8.110818  15.541983  56.542932   0.037081   0.041670  -1.791986   9.074411  -6.207997   0.892425   0.002309   0.004442
 -2.390380   0.906360   4.041700 -14.814131  -0.820254  -1.316321  10.454746   2.200323  -4.233261  -1.825791  -4.027991  -1.087459   2.714368   0.039472  -2.254004  -3.097737  -4.395886  -7.657016  -7.538117  -7.280376  14.987188  -0.006977  17.043449   0.012874   0.861960   0.199965  -6.788212  -7.819886  -1.950257   8.232258 -25.163629  -1.555362  -6.003910  -0.000042 -22.848511  -0.026093  -0.362349  -2.864012  11.493740  13.015419 -10.662696  -0.450576  16.773241   0.000769  -0.001162 -15.731872 -13.248962  -4.738418   4.704568   0.000402  -0.000238 -15.821612   8.085041  15.983460  58.161125   0.037338   0.039091  -1.838887   9.090946  -6.358428   0.963824   0.002152   0.003919
 -2.391781   0.905291   4.041008 -14.933838  -0.395207  -1.651346  10.749230   2.294620  -4.217221  -1.891266  -4.034416  -1.029977   2.709860   0.068662  -2.161841  -3.280615  -4.375047  -7.576134  -8.818689  -7.395776  14.878566  -0.009529  17.960678   0.021778   0.768775  -0.082678  -7.507226  -7.933529  -2.079917   8.008977 -25.841662  -1.626771  -6.536030   0.004656 -24.221148  -0.030928  -0.458375  -2.521806  12.240710  13.127186 -10.892074   0.088436  17.016166   0.000413  -0.000638 -15.844928 -13.520457  -4.866933   4.253656   0.000326   0.000437 -16.773675   7.929259  16.527733  59.735435   0.036835   0.036964  -2.039637   9.078830  -6.420709   0.948480   0.001662   0.003066
